<svg xmlns="http://www.w3.org/2000/svg" fill="none" width="144" height="144"><defs><clipPath id="prefix__a"><rect width="144" height="144" rx="0"/></clipPath></defs><g clip-path="url(#prefix__a)"><rect width="144" height="144" rx="0" fill="#2B9939"/><path d="M30 120h84V30H96v72H48V30H30v90z" fill="#FFF"/><path d="M64 84c0-11.046 8.954-20 20-20h60v80H64z" fill="#FF6B01"/><path d="M98.186 105.06l-18.22 18.22a2.25 2.25 0 01-3.182 0l-2.125-2.125a2.25 2.25 0 01-.004-3.178l14.44-14.507-14.44-14.508a2.25 2.25 0 01.004-3.178l2.125-2.125a2.25 2.25 0 013.182 0l18.22 18.22a2.25 2.25 0 010 3.182zM134 122.22v-3a2.25 2.25 0 00-2.25-2.25h-28.5a2.25 2.25 0 00-2.25 2.25v3a2.25 2.25 0 002.25 2.25h28.5a2.25 2.25 0 002.25-2.25z" fill="#FFF" style="mix-blend-mode:passthrough"/></g></svg>